<?xml version="1.0" encoding="utf-8"?>
<!-- Generator: Adobe Illustrator 17.0.0, SVG Export Plug-In . SVG Version: 6.00 Build 0)  -->
<!DOCTYPE svg PUBLIC "-//W3C//DTD SVG 1.1//EN" "http://www.w3.org/Graphics/SVG/1.1/DTD/svg11.dtd">
<svg version="1.1" id="Layer_1" xmlns="http://www.w3.org/2000/svg" xmlns:xlink="http://www.w3.org/1999/xlink" x="0px" y="0px"
	 width="612px" height="792px" viewBox="0 0 612 792" enable-background="new 0 0 612 792" xml:space="preserve">
<g id="XMLID_228_">
	<path id="XMLID_229_" fill="#FFFFFF" d="M81.743,314.973c-51.739,89.783-18.848,226.035,38.367,308.649
		C148.67,664.925,177.584,702,217.188,702c0.746,0,1.495-0.014,2.261-0.044c18.607-0.742,32.053-6.471,45.053-12.007
		c14.596-6.22,29.691-12.651,53.368-12.651c22.526,0,36.901,6.222,50.802,12.238c13.701,5.927,27.813,12.059,48.665,11.668
		c44.61-0.831,71.999-40.837,96.164-76.131c25.216-36.85,37.866-72.629,42.134-86.302l0.173-0.544
		c0.813-2.43-0.335-5.083-2.665-6.152c-0.064-0.03-0.301-0.128-0.367-0.156c-7.856-3.213-76.765-33.782-77.489-117.103
		c-0.672-67.693,51.695-103.54,62.197-110.038l0.49-0.305c1.138-0.732,1.93-1.894,2.199-3.223c0.269-1.326-0.012-2.707-0.775-3.823
		c-36.146-52.897-91.547-60.869-113.852-61.828c-3.237-0.323-6.577-0.486-9.932-0.486c-26.198,0-51.294,9.894-71.456,17.844
		c-13.918,5.488-25.939,10.227-34.23,10.227c-9.316,0-21.406-4.798-35.406-10.352c-18.721-7.43-39.941-15.85-62.404-15.85
		c-0.536,0-1.063,0.006-1.583,0.016C158.305,237.769,108.952,267.651,81.743,314.973z"/>
	<path id="XMLID_230_" fill="#FFFFFF" d="M425.593,90.004c-31.629,1.288-69.571,20.758-92.249,47.321
		c-19.273,22.327-38.101,59.553-33.14,97.075c0.311,2.348,2.221,4.16,4.583,4.342c2.135,0.167,4.314,0.251,6.485,0.253
		c30.927,0,64.29-17.11,87.075-44.66c23.98-29.091,36.106-66.425,32.438-99.866C430.495,91.848,428.189,89.902,425.593,90.004z"/>
</g>
</svg>
