<?xml version="1.0" encoding="utf-8"?>
<!-- Generator: Adobe Illustrator 17.0.0, SVG Export Plug-In . SVG Version: 6.00 Build 0)  -->
<!DOCTYPE svg PUBLIC "-//W3C//DTD SVG 1.1//EN" "http://www.w3.org/Graphics/SVG/1.1/DTD/svg11.dtd">
<svg version="1.1" id="Layer_1" xmlns="http://www.w3.org/2000/svg" xmlns:xlink="http://www.w3.org/1999/xlink" x="0px" y="0px"
	 width="1284px" height="1345px" viewBox="0 0 1284 1345" enable-background="new 0 0 1284 1345" xml:space="preserve">
<title>Group 14</title>
<desc>Created with Sketch.</desc>
<g id="RaidParty-Landing-Page-2" transform="translate(-31.000000, -82.000000)" opacity="0.2525">
	<g id="Group-14" transform="translate(35.000000, 83.000000)">
		<circle id="_x31_" fill="none" stroke="#C4C4C4" stroke-width="4" cx="624" cy="694" r="18"/>
		<circle id="_x32_" fill="none" stroke="#C4C4C4" stroke-width="4" cx="710.953" cy="603.471" r="18"/>
		<circle id="_x33_" fill="none" stroke="#C4C4C4" stroke-width="4" cx="663.733" cy="453.251" r="18"/>
		<circle id="_x34_" fill="none" stroke="#C4C4C4" stroke-width="4" cx="441.567" cy="406.085" r="18"/>
		<circle id="_x35_" fill="none" stroke="#C4C4C4" stroke-width="4" cx="396.507" cy="652.025" r="18"/>
		<circle id="_x36_" fill="none" stroke="#C4C4C4" stroke-width="4" cx="350.491" cy="836.009" r="18"/>
		<circle id="_x37_" fill="none" stroke="#C4C4C4" stroke-width="4" cx="488.12" cy="994.637" r="18"/>
		<rect id="_x38_" x="785.687" y="1020.205" fill="none" stroke="#C4C4C4" stroke-width="4" width="36" height="36"/>
		
			<rect id="_x39_" x="925.953" y="869.471" transform="matrix(-0.788 -0.6157 0.6157 -0.788 1141.417 2167.9641)" fill="none" stroke="#C4C4C4" stroke-width="4" width="36" height="36"/>
		
			<rect id="_x31_0" x="1016.733" y="481.251" transform="matrix(-0.9659 0.2588 -0.2588 -0.9659 2163.4236 713.681)" fill="none" stroke="#C4C4C4" stroke-width="4" width="36" height="36"/>
		
			<rect id="_x31_1" x="877.567" y="205.085" transform="matrix(-0.9455 -0.3256 0.3256 -0.9455 1669.7128 725.5836)" fill="none" stroke="#C4C4C4" stroke-width="4" width="36" height="36"/>
		
			<rect id="_x31_2" x="515.507" y="159.025" transform="matrix(0.2419 -0.9703 0.9703 0.2419 232.6734 651.8587)" fill="none" stroke="#C4C4C4" stroke-width="4" width="36" height="36"/>
		
			<rect id="_x31_3" x="150.491" y="301.009" transform="matrix(0.848 -0.5299 0.5299 0.848 -143.4464 137.7605)" fill="none" stroke="#C4C4C4" stroke-width="4" width="36" height="36"/>
		
			<rect id="_x31_4" x="102.12" y="719.637" transform="matrix(-0.3746 -0.9272 0.9272 -0.3746 -518.8083 1125.3342)" fill="none" stroke="#C4C4C4" stroke-width="4" width="36" height="36"/>
		<g id="_x31_5" transform="translate(192.687351, 1109.205223)">
			<path id="Rectangle-8-Copy" fill="none" stroke="#C4C4C4" stroke-width="4" d="M36,0L0,36L36,0z"/>
			<path id="Rectangle-8-Copy-2" fill="none" stroke="#C4C4C4" stroke-width="4" d="M0,0l36,36L0,0z"/>
		</g>
		
			<g id="_x31_6" transform="translate(579.953451, 1218.471323) rotate(38.000000) translate(-579.953451, -1218.471323) translate(561.953451, 1200.471323)">
			<path id="Rectangle-8-Copy_1_" fill="none" stroke="#C4C4C4" stroke-width="4" d="M36,0L0,36L36,0z"/>
			<path id="Rectangle-8-Copy-2_1_" fill="none" stroke="#C4C4C4" stroke-width="4" d="M0,0l36,36L0,0z"/>
		</g>
		
			<g id="_x31_7" transform="translate(1118.732759, 1201.250631) rotate(-15.000000) translate(-1118.732759, -1201.250631) translate(1100.732759, 1183.250631)">
			<path id="Rectangle-8-Copy_2_" fill="none" stroke="#C4C4C4" stroke-width="4" d="M36,0L0,36L36,0z"/>
			<path id="Rectangle-8-Copy-2_2_" fill="none" stroke="#C4C4C4" stroke-width="4" d="M0,0l36,36L0,0z"/>
		</g>
		
			<g id="_x31_8" transform="translate(1172.566912, 786.084784) rotate(19.000000) translate(-1172.566912, -786.084784) translate(1154.566912, 768.084784)">
			<path id="Rectangle-8-Copy_3_" fill="none" stroke="#C4C4C4" stroke-width="4" d="M36,0L0,36L36,0z"/>
			<path id="Rectangle-8-Copy-2_3_" fill="none" stroke="#C4C4C4" stroke-width="4" d="M0,0l36,36L0,0z"/>
		</g>
		
			<g id="_x31_9" transform="translate(1128.507268, 270.025140) rotate(104.000000) translate(-1128.507268, -270.025140) translate(1110.507268, 252.025140)">
			<path id="Rectangle-8-Copy_4_" fill="none" stroke="#C4C4C4" stroke-width="4" d="M36,0L0,36L36,0z"/>
			<path id="Rectangle-8-Copy-2_4_" fill="none" stroke="#C4C4C4" stroke-width="4" d="M0,0l36,36L0,0z"/>
		</g>
		
			<g id="_x32_0" transform="translate(760.490764, 25.008636) rotate(148.000000) translate(-760.490764, -25.008636) translate(742.490764, 7.008636)">
			<path id="Rectangle-8-Copy_5_" fill="none" stroke="#C4C4C4" stroke-width="4" d="M36,0L0,36L36,0z"/>
			<path id="Rectangle-8-Copy-2_5_" fill="none" stroke="#C4C4C4" stroke-width="4" d="M0,0l36,36L0,0z"/>
		</g>
		
			<g id="_x32_1" transform="translate(302.119579, 129.637451) rotate(68.000000) translate(-302.119579, -129.637451) translate(284.119579, 111.637451)">
			<path id="Rectangle-8-Copy_6_" fill="none" stroke="#C4C4C4" stroke-width="4" d="M36,0L0,36L36,0z"/>
			<path id="Rectangle-8-Copy-2_6_" fill="none" stroke="#C4C4C4" stroke-width="4" d="M0,0l36,36L0,0z"/>
		</g>
		<polygon id="_x32_2" fill="none" stroke="#C4C4C4" stroke-width="4" points="75.472,345.205 96.257,381.205 54.687,381.205 		"/>
		<polygon id="_x32_3" fill="none" stroke="#C4C4C4" stroke-width="4" points="39.23,928.002 33.444,969.166 0.687,943.574 		"/>
		<polygon id="_x32_4" fill="none" stroke="#C4C4C4" stroke-width="4" points="248.764,1250.585 278.158,1279.979 238.005,1290.737 
					"/>
		<polygon id="_x32_5" fill="none" stroke="#C4C4C4" stroke-width="4" points="853.06,1299.972 860.992,1340.777 821.687,1327.244 
					"/>
		<polygon id="_x32_6" fill="none" stroke="#C4C4C4" stroke-width="4" points="1235.646,1087.082 1195.687,1098.54 
			1205.744,1058.205 		"/>
		<polygon id="_x32_7" fill="none" stroke="#C4C4C4" stroke-width="4" points="1277.391,564.749 1240.688,545.234 1275.94,523.205 
					"/>
		<polygon id="_x32_8" fill="none" stroke="#C4C4C4" stroke-width="4" points="1098.852,71.476 1073.26,104.233 1057.687,65.691 		
			"/>
	</g>
</g>
</svg>
