<?xml version="1.0" encoding="utf-8"?>
<!-- Generator: Adobe Illustrator 17.0.0, SVG Export Plug-In . SVG Version: 6.00 Build 0)  -->
<!DOCTYPE svg PUBLIC "-//W3C//DTD SVG 1.1//EN" "http://www.w3.org/Graphics/SVG/1.1/DTD/svg11.dtd">
<svg version="1.1" id="Capa_1" xmlns="http://www.w3.org/2000/svg" xmlns:xlink="http://www.w3.org/1999/xlink" x="0px" y="0px"
	 width="612px" height="792px" viewBox="0 0 612 792" enable-background="new 0 0 612 792" xml:space="preserve">
<g>
	<g>
		<path fill="#FFFFFF" d="M41.492,545.623v99.204c0,6.035,4.904,11.065,11.065,11.065h76.698c6.035,0,11.065-4.904,11.065-11.065
			V470.309l-55.7,55.7C72.8,537.702,57.712,544.492,41.492,545.623z"/>
		<path fill="#FFFFFF" d="M178.542,469.051v175.776c0,6.035,4.904,11.065,11.065,11.065h76.698c6.035,0,11.065-4.904,11.065-11.065
			V541.348c-17.477-0.377-33.822-7.293-46.144-19.615L178.542,469.051z"/>
		<path fill="#FFFFFF" d="M315.592,530.41v114.418c0,6.035,4.904,11.065,11.065,11.065h76.698c6.035,0,11.065-4.904,11.065-11.065
			V433.72l-87.888,87.888C323.136,525.003,319.49,527.895,315.592,530.41z"/>
		<path fill="#FFFFFF" d="M544.051,303.963l-91.409,91.409v249.456c0,6.035,4.904,11.065,11.065,11.065h76.698
			c6.035,0,11.065-4.904,11.065-11.065V310.878c-2.515-2.137-4.401-4.023-5.784-5.281L544.051,303.963z"/>
		<path fill="#FFFFFF" d="M606.792,142.017c-3.646-3.898-9.179-5.91-16.22-5.91c-0.629,0-1.383,0-2.012,0
			c-35.708,1.635-71.291,3.395-107,5.029c-4.778,0.251-11.316,0.503-16.471,5.658c-1.635,1.635-2.892,3.521-3.898,5.784
			c-5.281,11.442,2.138,18.86,5.658,22.381l8.927,9.053c6.161,6.287,12.448,12.573,18.734,18.734L278.752,418.632l-96.941-96.941
			c-5.784-5.784-13.579-9.053-21.878-9.053c-8.298,0-15.968,3.269-21.752,9.053L9.053,450.694c-12.07,12.07-12.07,31.559,0,43.63
			l5.784,5.784c5.784,5.784,13.579,9.053,21.878,9.053s15.968-3.269,21.752-9.053L159.934,398.64l96.941,96.941
			c5.784,5.784,13.579,9.053,21.878,9.053c8.298,0,15.968-3.269,21.878-9.053L544.051,252.16l27.536,27.41
			c3.269,3.269,7.796,7.796,14.711,7.796c2.892,0,5.784-0.754,8.801-2.389c2.012-1.132,3.772-2.389,5.281-3.898
			c5.407-5.407,6.412-12.322,6.664-17.728c1.006-23.135,2.138-46.27,3.269-69.531l1.635-34.828
			C612.324,151.699,610.69,146.041,606.792,142.017z"/>
	</g>
</g>
</svg>
