<?xml version="1.0" encoding="utf-8"?>
<!-- Generator: Adobe Illustrator 17.0.0, SVG Export Plug-In . SVG Version: 6.00 Build 0)  -->
<!DOCTYPE svg PUBLIC "-//W3C//DTD SVG 1.1//EN" "http://www.w3.org/Graphics/SVG/1.1/DTD/svg11.dtd">
<svg version="1.1" id="Layer_1" xmlns="http://www.w3.org/2000/svg" xmlns:xlink="http://www.w3.org/1999/xlink" x="0px" y="0px"
	 width="612px" height="792px" viewBox="0 0 612 792" enable-background="new 0 0 612 792" xml:space="preserve">
<g>
	<g>
		<g>
			<path fill="#FFFFFF" d="M588.257,380.406L326.375,118.525C308.255,100.404,283.181,90,257.536,90H55.637
				C24.966,90,0,114.952,0,145.637v201.886c0,25.984,10.133,50.448,28.525,68.853l261.882,261.882
				C305.728,693.566,326.103,702,347.727,702s41.999-8.435,57.32-23.743l183.209-183.209c15.322-15.294,23.743-35.656,23.743-57.32
				S603.579,395.701,588.257,380.406z M150.611,260.285l-29.504,29.509c-2.716,2.716-6.276,4.075-9.835,4.075
				c-3.559,0-7.117-1.359-9.835-4.075c-5.434-5.434-5.434-14.236,0-19.668l39.323-39.329c0,0,0.007-0.013,0.013-0.021
				c0.007-0.007,0.013-0.007,0.013-0.007l39.323-39.329c5.216-5.216,14.452-5.216,19.668,0l39.337,39.337
				c5.434,5.434,5.434,14.236,0,19.668c-5.434,5.434-14.236,5.434-19.668,0l-29.503-29.503l-19.668,19.672l19.668,19.678
				c5.434,5.434,5.434,14.236,0,19.668c-2.716,2.716-6.276,4.075-9.835,4.075c-3.559,0-7.117-1.359-9.835-4.075L150.611,260.285z
				 M229.282,411.892c-3.559,0-7.117-1.359-9.835-4.075c-5.434-5.434-5.434-14.249,0-19.668l19.695-19.682
				c5.406-5.419,5.406-14.249,0-19.682l-9.862-9.82l-29.503,29.503c-5.434,5.434-14.236,5.434-19.668,0
				c-5.434-5.434-5.434-14.236,0-19.668l38.984-38.956c0.108-0.136,0.218-0.258,0.353-0.381c0.108-0.123,0.245-0.245,0.381-0.366
				l38.984-38.969c5.434-5.434,14.236-5.434,19.668,0l19.668,19.668c16.272,16.272,16.272,42.733,0,59.005
				c-7.335,7.335-16.924,11.613-27.221,12.157c-0.544,9.902-4.591,19.642-12.117,27.18l-19.695,19.682
				C236.401,410.533,232.841,411.892,229.282,411.892z M317.817,466.822c5.434,5.434,5.434,14.236,0,19.668
				c-2.716,2.716-6.276,4.075-9.835,4.075c-3.559,0-7.117-1.359-9.835-4.075l-39.337-39.337c-5.434-5.434-5.434-14.236,0-19.668
				l78.673-78.687c2.608-2.608,6.139-4.075,9.835-4.075s7.227,1.467,9.835,4.075l39.337,39.35c5.434,5.434,5.434,14.236,0,19.668
				c-5.434,5.434-14.236,5.434-19.668,0l-29.503-29.516l-19.673,19.677l19.673,19.673c5.434,5.434,5.434,14.236,0,19.668
				c-2.716,2.716-6.276,4.075-9.835,4.075s-7.117-1.359-9.835-4.075l-19.671-19.671l-19.667,19.671L317.817,466.822z
				 M475.164,486.49c-5.434,5.434-14.236,5.434-19.668,0l-29.503-29.503l-19.668,19.668l19.668,19.668
				c5.434,5.434,5.434,14.236,0,19.668c-2.716,2.716-6.276,4.075-9.835,4.075s-7.117-1.359-9.835-4.075l-19.668-19.668
				l-19.668,19.668l29.503,29.516c5.434,5.434,5.434,14.236,0,19.668c-2.716,2.716-6.276,4.075-9.835,4.075
				s-7.117-1.359-9.835-4.075l-39.337-39.35c-5.434-5.434-5.434-14.236,0-19.668l78.673-78.673c5.434-5.434,14.236-5.434,19.668,0
				l39.337,39.337C480.598,472.256,480.598,481.058,475.164,486.49z"/>
			<path fill="#FFFFFF" d="M268.62,333.205h0.027c3.722,0,7.199-1.454,9.835-4.075c5.434-5.419,5.434-14.249,0-19.668l-9.835-9.835
				l-19.668,19.668l9.835,9.82C261.448,331.765,264.925,333.205,268.62,333.205z"/>
		</g>
	</g>
</g>
</svg>
