<?xml version="1.0" encoding="utf-8"?>
<!-- Generator: Adobe Illustrator 17.0.0, SVG Export Plug-In . SVG Version: 6.00 Build 0)  -->
<!DOCTYPE svg PUBLIC "-//W3C//DTD SVG 1.1//EN" "http://www.w3.org/Graphics/SVG/1.1/DTD/svg11.dtd">
<svg version="1.1" id="Capa_1" xmlns="http://www.w3.org/2000/svg" xmlns:xlink="http://www.w3.org/1999/xlink" x="0px" y="0px"
	 width="612px" height="792px" viewBox="0 0 612 792" enable-background="new 0 0 612 792" xml:space="preserve">
<g>
	<g id="Layer_5_21_">
		<g>
			<path fill="#FFFFFF" d="M565.076,609.998c0,0-67.926-116.744-80.11-137.682c13.863-4.229,28.63-7.963,34.766-18.558
				c10.226-17.653-7.977-46.613-3.197-65.535c4.924-19.474,33.989-36.326,33.989-56.121c0-19.286-30.049-41.817-34.976-61.177
				c-4.813-18.919,13.335-47.909,3.076-65.541c-10.259-17.634-44.43-16.185-58.496-29.72
				c-14.473-13.929-14.428-48.009-31.885-57.343c-17.528-9.369-46.014,9.566-65.475,5.081C343.528,118.968,326.339,90,306.243,90
				c-20.394,0-52.831,32.859-57.919,34.042c-19.451,4.522-47.974-14.367-65.484-4.958c-17.44,9.366-17.333,43.449-31.779,57.401
				c-14.043,13.56-48.215,12.174-58.443,29.828c-10.226,17.65,7.977,46.603,3.199,65.535c-4.791,18.98-34.869,38.211-34.869,60.161
				c0,19.797,29.138,36.595,34.091,56.06c4.814,18.919-13.334,47.906-3.075,65.545c5.585,9.601,18.257,13.542,30.913,17.331
				c1.477,0.442,4.27,2.094,2.378,4.851c-8.658,14.944-78.344,135.213-78.344,135.213c-5.544,9.566-1.042,17.766,10.001,18.231
				l54.054,2.254c11.043,0.465,24.896,8.489,30.79,17.839l28.844,45.769c5.894,9.349,15.247,9.174,20.789-0.39
				c0,0,80.704-139.332,80.737-139.372c1.619-1.892,3.247-1.503,4.026-0.842c8.83,7.518,21.14,15.019,31.414,15.019
				c10.075,0,19.405-7.06,28.634-14.935c0.751-0.64,2.578-1.952,3.915,0.771c0.022,0.043,80.636,138.613,80.636,138.613
				c5.557,9.553,14.911,9.715,20.788,0.354l28.763-45.824c5.878-9.356,19.716-17.412,30.759-17.893l54.049-2.355
				C566.146,627.761,570.633,619.549,565.076,609.998z M395.574,484.666c-59.764,34.769-131.501,31.043-186.294-3.518
				c-80.287-51.427-106.705-157.811-58.44-241.115c48.816-84.265,156.124-113.998,241.148-67.691
				c0.447,0.243,0.888,0.495,1.331,0.743c0.63,0.349,1.259,0.703,1.885,1.06c26.23,15.123,48.976,37.072,65.264,65.067
				C510.247,324.776,481.137,434.888,395.574,484.666z"/>
			<path fill="#FFFFFF" d="M381.906,199.326c-0.248-0.144-0.499-0.278-0.748-0.42c-45.419-26.287-103.308-28.208-151.824,0.018
				c-71.996,41.886-96.495,134.534-54.609,206.529c12.781,21.97,30.296,39.508,50.503,52.094c1.718,1.088,3.457,2.158,5.233,3.187
				c72.074,41.755,164.673,17.089,206.427-54.981C478.64,333.679,453.98,241.081,381.906,199.326z M399.937,317.15L374.7,341.748
				c-7.816,7.618-12.702,22.655-10.854,33.413l5.957,34.733c1.846,10.758-4.548,15.404-14.21,10.325l-31.194-16.4
				c-9.662-5.079-25.471-5.079-35.133,0l-31.192,16.4c-9.662,5.079-16.057,0.433-14.212-10.325l5.957-34.733
				c1.846-10.758-3.04-25.795-10.856-33.413l-25.235-24.598c-7.818-7.618-5.373-15.136,5.428-16.707l34.874-5.067
				c10.801-1.57,23.593-10.863,28.424-20.65l15.596-31.601c4.831-9.788,12.737-9.788,17.566,0l15.598,31.601
				c4.831,9.788,17.62,19.081,28.423,20.65l34.874,5.067C405.31,302.014,407.753,309.532,399.937,317.15z"/>
		</g>
	</g>
</g>
</svg>
