<?xml version="1.0" encoding="utf-8"?>
<!-- Generator: Adobe Illustrator 17.0.0, SVG Export Plug-In . SVG Version: 6.00 Build 0)  -->
<!DOCTYPE svg PUBLIC "-//W3C//DTD SVG 1.1//EN" "http://www.w3.org/Graphics/SVG/1.1/DTD/svg11.dtd">
<svg version="1.1" id="Capa_1" xmlns="http://www.w3.org/2000/svg" xmlns:xlink="http://www.w3.org/1999/xlink" x="0px" y="0px"
	 width="612px" height="792px" viewBox="0 0 612 792" enable-background="new 0 0 612 792" xml:space="preserve">
<g>
	<path fill="#FFFFFF" d="M136.351,141.92c-0.309,0.238-0.547,0.499-0.832,0.737c1.736-1.831,4.233-3.805,5.875-4.876
		C189.294,106.649,244.638,90,306.048,90c57.437,0,111.236,15.864,157.162,43.453c3.33,1.974,12.415,8.205,17.1,13.866v0.024
		c-44.309-48.852-174.548,55.963-174.548,55.963c-45.046-34.724-86.477-58.389-117.325-66.808
		C162.656,129.433,144.818,135.332,136.351,141.92z M530.494,188.107c-1.356-1.498-2.83-2.902-4.186-4.448
		c-11.202-12.296-24.973-15.269-37.388-14.46c-11.297,3.544-63.502,22.357-127.837,83.1c0,0,72.421,70.423,116.778,142.416
		c44.309,71.993,70.804,128.574,54.512,207.108c49.446-54.346,79.604-126.553,79.604-205.847
		C611.976,315.73,581.081,242.691,530.494,188.107z M419.947,425.468c-19.645-22.047-48.875-53.632-87.476-92.019
		c-8.443-8.396-17.362-17.148-26.733-26.21c0,0-14.104,14.104-32.465,32.655v-0.024c-23.498,23.736-53.965,54.702-70.875,72.778
		C172.289,444.78,86.025,545.694,81.173,602.275c0,0-19.193-44.88,22.927-148.386c27.518-67.664,110.665-169.268,145.389-202.375
		c0,0-31.727-34.914-71.541-59.031l-0.238-0.071c0,0-0.452-0.357-1.165-0.809c-19.146-11.416-40.052-20.216-60.173-21.381
		c-20.549,1.451-33.559,16.482-33.559,16.482C31.466,241.454,0.048,315.041,0.048,396c0,168.983,136.994,306,306,306
		c89.688,0,170.386-38.672,226.372-100.153c-0.024-0.095-6.445-40.432-47.615-98.298
		C475.125,489.993,439.759,447.682,419.947,425.468z"/>
</g>
</svg>
